<?xml version="1.0" encoding="iso-8859-1"?>
<!-- Generator: Adobe Illustrator 19.0.0, SVG Export Plug-In . SVG Version: 6.00 Build 0)  -->
<svg xmlns="http://www.w3.org/2000/svg" xmlns:xlink="http://www.w3.org/1999/xlink" version="1.1" id="Capa_1" x="0px" y="0px" viewBox="0 0 512 512" style="enable-background:new 0 0 512 512;" xml:space="preserve" width="512" height="512">
<g>
	<path style="fill:#B3E59F;" d="M40.635,154.413v203.175h56.889c4.488,0,8.127-3.639,8.127-8.127v-8.127   c0-4.488,3.639-8.127,8.127-8.127h32.508c4.488,0,8.127,3.639,8.127,8.127v40.635c0,4.488,3.639,8.127,8.127,8.127h48.762   c4.488,0,8.127-3.639,8.127-8.127l0-15.385c0-8.097,5.533-15.602,13.525-16.901c10.183-1.656,18.983,6.16,18.983,16.032v16.254   c0,4.488,3.639,8.127,8.127,8.127h146.286c4.488,0,8.127-3.639,8.127-8.127l0-15.385c0-8.097,5.533-15.602,13.525-16.901   c10.183-1.656,18.983,6.16,18.983,16.032v16.254c0,4.488,3.639,8.127,8.127,8.127h16.254c4.488,0,8.127-3.639,8.127-8.127V154.413   H40.635z"/>
	<path style="fill:#FFD064;" d="M113.778,276.317L113.778,276.317c-4.488,0-8.127-3.639-8.127-8.127v-81.27   c0-4.488,3.639-8.127,8.127-8.127h0c4.488,0,8.127,3.639,8.127,8.127v81.27C121.905,272.679,118.266,276.317,113.778,276.317z"/>
	<path style="fill:#FFD064;" d="M146.286,276.317L146.286,276.317c-4.488,0-8.127-3.639-8.127-8.127v-81.27   c0-4.488,3.639-8.127,8.127-8.127h0c4.488,0,8.127,3.639,8.127,8.127v81.27C154.413,272.679,150.774,276.317,146.286,276.317z"/>
	<path style="fill:#A4CCFF;" d="M138.159,333.206h-16.254v-16.254c0-13.444,10.937-24.381,24.381-24.381h89.397v16.254h-89.397   c-4.484,0-8.127,3.647-8.127,8.127V333.206z"/>
	<path style="fill:#95D6A4;" d="M40.635,357.587h56.889c4.488,0,8.127-3.639,8.127-8.127v-8.127c0-4.489,3.638-8.127,8.127-8.127   H40.635V357.587z"/>
	<path style="fill:#95D6A4;" d="M154.413,341.333v40.635c0,4.488,3.638,8.127,8.127,8.127h48.762c4.489,0,8.127-3.639,8.127-8.127   v-15.385c0-8.097,5.533-15.602,13.525-16.901c10.183-1.655,18.983,6.16,18.983,16.032v16.254c0,4.488,3.638,8.127,8.127,8.127   h146.286c4.489,0,8.127-3.639,8.127-8.127v-15.385c0-8.097,5.533-15.602,13.525-16.901c10.183-1.655,18.983,6.16,18.983,16.032   v16.254c0,4.488,3.638,8.127,8.127,8.127h16.254c4.489,0,8.127-3.639,8.127-8.127v-48.762H146.286   C150.774,333.206,154.413,336.845,154.413,341.333z"/>
	<rect x="40.635" y="154.413" style="fill:#DAD8DB;" width="32.508" height="203.175"/>
	<path style="fill:#FFE07D;" d="M162.54,390.095h48.762c4.489,0,8.127-3.639,8.127-8.127v-15.385c0-3.216,0.861-6.318,2.415-8.996   h-67.43v24.381C154.413,386.456,158.051,390.095,162.54,390.095z"/>
	<path style="fill:#FFE07D;" d="M260.063,390.095h146.286c4.489,0,8.127-3.639,8.127-8.127v-15.385c0-3.216,0.861-6.318,2.414-8.996   H249.753c1.4,2.402,2.184,5.146,2.184,8.127v16.254C251.937,386.456,255.575,390.095,260.063,390.095z"/>
	<path style="fill:#FFE07D;" d="M444.808,357.587c1.4,2.402,2.176,5.146,2.176,8.127v16.254c0,4.488,3.638,8.127,8.127,8.127h16.254   c4.489,0,8.127-3.639,8.127-8.127v-24.381H444.808z"/>
	<path style="fill:#DAD8DB;" d="M16.254,243.81c-4.489,0-8.127,3.638-8.127,8.127v65.016c0,4.488,3.638,8.127,8.127,8.127h24.381   v-81.27H16.254z"/>
	<path style="fill:#DAD8DB;" d="M40.635,219.429H24.381c-4.492,0-8.127-3.639-8.127-8.127s3.635-8.127,8.127-8.127h16.254   c4.492,0,8.127,3.639,8.127,8.127S45.127,219.429,40.635,219.429z"/>
	<path style="fill:#DAD8DB;" d="M40.635,365.714H24.381c-4.492,0-8.127-3.639-8.127-8.127s3.635-8.127,8.127-8.127h16.254   c4.492,0,8.127,3.639,8.127,8.127S45.127,365.714,40.635,365.714z"/>
	<path style="fill:#6F6571;" d="M495.746,316.952H235.683c-8.977,0-16.254-7.277-16.254-16.254V154.413   c0-8.977,7.277-16.254,16.254-16.254h260.063c8.977,0,16.254,7.277,16.254,16.254v146.286   C512,309.675,504.723,316.952,495.746,316.952z"/>
	<path style="fill:#5D5360;" d="M235.683,268.19V138.159c-8.977,0-16.254,7.277-16.254,16.254v146.286   c0,8.977,7.277,16.254,16.254,16.254h260.063c8.977,0,16.254-7.277,16.254-16.254H268.19   C250.237,300.698,235.683,286.144,235.683,268.19z"/>
	<path style="fill:#DAD8DB;" d="M284.444,203.175h-65.016v48.762h65.016c8.977,0,16.254-7.277,16.254-16.254v-16.254   C300.698,210.451,293.421,203.175,284.444,203.175z"/>
	<path style="fill:#FF8086;" d="M186.921,219.429c-4.492,0-8.127-3.639-8.127-8.127v-8.127c0-4.488,3.635-8.127,8.127-8.127   s8.127,3.639,8.127,8.127v8.127C195.048,215.79,191.413,219.429,186.921,219.429z"/>
	<path style="fill:#FF8086;" d="M186.921,260.064c-4.492,0-8.127-3.639-8.127-8.127v-8.127c0-4.488,3.635-8.127,8.127-8.127   s8.127,3.639,8.127,8.127v8.127C195.048,256.425,191.413,260.064,186.921,260.064z"/>
	<path style="fill:#ECEAEC;" d="M40.635,414.476c-4.492,0-8.127-3.639-8.127-8.127V113.778H8.127c-4.492,0-8.127-3.639-8.127-8.127   c0-4.488,3.635-8.127,8.127-8.127h24.381c8.96,0,16.254,7.29,16.254,16.254v292.571C48.762,410.837,45.127,414.476,40.635,414.476z   "/>
	<rect x="170.667" y="357.587" style="fill:#FFD064;" width="16.254" height="32.508"/>
	<path style="fill:#FFD064;" d="M219.429,381.968v-15.385c0-3.216,0.861-6.318,2.415-8.996h-18.669v32.508h8.127   C215.79,390.095,219.429,386.456,219.429,381.968z"/>
	<rect x="268.19" y="357.587" style="fill:#FFD064;" width="16.254" height="32.508"/>
	<rect x="300.698" y="357.587" style="fill:#FFD064;" width="16.254" height="32.508"/>
	<rect x="333.206" y="357.587" style="fill:#FFD064;" width="16.254" height="32.508"/>
	<rect x="365.714" y="357.587" style="fill:#FFD064;" width="16.254" height="32.508"/>
	<path style="fill:#FFD064;" d="M471.365,390.095h-8.127v-32.508h16.254v24.381C479.492,386.457,475.853,390.095,471.365,390.095z"/>
	<path style="fill:#FFD064;" d="M414.476,381.968v-15.385c0-3.216,0.861-6.318,2.414-8.996h-18.668v32.508h8.127   C410.838,390.095,414.476,386.456,414.476,381.968z"/>
	<rect x="219.429" y="203.175" style="fill:#C8C5C9;" width="16.254" height="48.762"/>
	<ellipse style="fill:#5D5360;" cx="422.605" cy="227.596" rx="81.182" ry="81.213"/>
	<path style="fill:#4B3F4E;" d="M448.19,238.127c19.531-2.923,37.989-8.605,55.386-16.437c-0.409-5.712-1.386-11.257-2.916-16.582   c-16.831,8.029-34.803,13.845-53.915,16.797l-4.658-0.437l5.872-4.865c0.476-0.397,0.913-0.845,1.286-1.337   c11.518-15.136,20.469-31.439,27.12-48.543c-4.242-3.752-8.851-7.084-13.813-9.892c-6.065,16.877-14.477,32.978-25.688,47.856   l-4.001,3.315l0.517-5.506c0.056-0.615,0.04-1.238-0.04-1.853c-2.598-19.111-7.995-37.143-15.576-54.113   c-5.732,0.338-11.297,1.254-16.649,2.72c7.813,16.403,13.358,33.957,15.987,52.666l-0.485,5.175l-3.523-4.254   c-0.397-0.48-0.849-0.909-1.341-1.286c-15.585-11.855-32.391-20.999-50.043-27.694c-3.754,4.254-7.089,8.876-9.896,13.852   c17.429,6.09,34.041,14.679,49.359,26.219l3.323,4.013l-5.514-0.517c-0.619-0.052-1.238-0.052-1.857,0.04   c-19.628,2.666-38.118,8.297-55.484,16.221c0.427,5.698,1.418,11.23,2.959,16.539c16.723-8.109,34.662-13.837,53.803-16.53   l3.103,0.291l-1.626,1.348c-0.508,0.421-0.96,0.897-1.349,1.429c-12.188,16.488-21.582,34.211-28.433,52.77   c4.312,3.657,8.987,6.894,14.001,9.598c6.251-18.268,15.073-35.736,26.916-51.919l1.996-1.653l-0.392,4.185   c-0.056,0.651-0.04,1.31,0.056,1.96c2.998,20.046,8.917,38.965,17.092,56.761c5.676-0.497,11.187-1.551,16.468-3.154   c-8.322-17.154-14.322-35.505-17.337-55.044l0.242-2.571l2.671,3.226c0.421,0.508,0.905,0.96,1.429,1.353   c16.042,11.859,33.259,21.056,51.275,27.859c3.655-4.299,6.901-8.954,9.607-13.955c-17.725-6.23-34.691-14.873-50.43-26.392   l-1.653-1.996l4.185,0.393C446.881,238.25,447.532,238.226,448.19,238.127z"/>
	<circle style="fill:#6F6571;" cx="422.603" cy="227.556" r="32.508"/>
	<path style="fill:#6F6571;" d="M146.286,251.937h-32.508c-4.488,0-8.127-3.639-8.127-8.127v-32.508   c0-4.488,3.639-8.127,8.127-8.127h32.508c4.488,0,8.127,3.639,8.127,8.127v32.508C154.413,248.298,150.774,251.937,146.286,251.937   z"/>
	<path style="fill:#5D5360;" d="M138.159,235.683c-8.977,0-16.254-7.277-16.254-16.254v-16.254h-8.127   c-4.488,0-8.127,3.639-8.127,8.127v32.508c0,4.488,3.639,8.127,8.127,8.127h32.508c4.488,0,8.127-3.639,8.127-8.127v-8.127H138.159   z"/>
</g>















</svg>
